<svg id="logo" data-name="logo" xmlns="http://www.w3.org/2000/svg" width="83.53" height="25" viewBox="0 0 83.53 25">
  <defs>
    <style>
      .cls-1, .cls-2 {
        fill: #fff;
      }

      .cls-2 {
        font-size: 20px;
        font-family: Quicksand-Bold, Quicksand;
        font-weight: 700;
      }
    </style>
  </defs>
  <path id="Icon_metro-pin" data-name="Icon metro-pin" class="cls-1" d="M10.411,12.862,2.964,8.568a1.909,1.909,0,1,0-1.911,3.3L8.5,16.167a1.909,1.909,0,1,0,1.912-3.3ZM4.269,8.218l5.792,3.34,1.971-5.476-4-2.305ZM0,22.286,5.54,15.563,3.057,14.132ZM14.426,3.054,9.462.191A1.432,1.432,0,1,0,8.029,2.671l4.964,2.863a1.432,1.432,0,1,0,1.433-2.479Z" transform="translate(1.556 0.937) rotate(4)"/>
  <text id="Events" class="cls-2" transform="translate(18.53 20)"><tspan x="0" y="0">Events</tspan></text>
</svg>
